<svg viewBox="0 0 203.829 60" xmlns="http://www.w3.org/2000/svg" xmlns:xlink="http://www.w3.org/1999/xlink" width="203.828613" height="60.000000" fill="none" customFrame="#000000">
	<g id="Лого">
		<rect id="Rectangle 2" width="60.000000" height="60.000000" x="0.000000" y="0.000000" rx="5.000000" fill="rgb(255,255,255)" />
		<path id="B" d="M40.348 29.172C41.852 29.684 43.02 30.516 43.852 31.668C44.684 32.82 45.1 34.26 45.1 35.988C45.1 39.38 43.788 41.988 41.164 43.812C38.572 45.604 35.02 46.5 30.508 46.5L14.332 46.5L21.052 12.9L35.932 12.9C39.324 12.9 41.932 13.54 43.756 14.82C45.612 16.068 46.54 17.892 46.54 20.292C46.54 22.468 45.964 24.324 44.812 25.86C43.692 27.364 42.204 28.468 40.348 29.172ZM25.036 16.788L22.876 27.54L32.716 27.54C35.436 27.54 37.58 26.996 39.148 25.908C40.748 24.788 41.548 23.172 41.548 21.06C41.548 19.62 40.972 18.548 39.82 17.844C38.7 17.14 37.068 16.788 34.924 16.788L25.036 16.788ZM30.844 42.612C33.884 42.612 36.22 42.052 37.852 40.932C39.516 39.78 40.348 38.148 40.348 36.036C40.348 34.372 39.756 33.188 38.572 32.484C37.42 31.78 35.676 31.428 33.34 31.428L22.108 31.428L19.9 42.612L30.844 42.612Z" fill="rgb(72.25,27.744,2.70938)" fill-rule="nonzero" />
		<path id="VPS" d="M49.4264 29.2502C49.5734 28.6902 49.6469 28.1127 49.6469 27.5177Q49.6469 26.4677 49.3319 25.7327Q49.0064 24.9977 48.4709 24.6302Q48.2311 24.4656 47.9661 24.3748Q47.6392 24.2627 47.2739 24.2627Q46.5751 24.2627 46.1468 24.6031Q46.1053 24.6361 46.0664 24.6722Q45.806 24.9023 45.6294 25.1849Q45.4999 25.3922 45.4154 25.6277Q45.2054 26.1737 45.0269 27.0137Q44.8694 27.7592 44.7224 28.0952C44.6244 28.3192 44.4774 28.4312 44.2814 28.4312Q44.1749 28.4312 44.0835 28.394Q43.9227 28.3285 43.8089 28.1477Q43.6199 27.8642 43.6199 27.2447Q43.6199 26.2577 44.1869 25.2077L42.6434 24.5672Q42.3284 25.1027 42.1709 25.8062Q42.0921 26.1363 42.0503 26.471Q42.0029 26.8496 42.0029 27.2342Q42.0029 28.2947 42.3179 29.0297Q42.6329 29.7542 43.1789 30.1217Q43.3948 30.2699 43.6329 30.3583Q43.9854 30.4892 44.3864 30.4892Q45.1026 30.4892 45.5437 30.1409Q45.5748 30.1164 45.6044 30.0902C45.9054 29.8242 46.1259 29.5057 46.2659 29.1347C46.3989 28.7637 46.5249 28.3017 46.6439 27.7487C46.7559 27.2447 46.8644 26.8807 46.9694 26.6567C47.0674 26.4257 47.2214 26.3102 47.4314 26.3102Q47.5511 26.3102 47.6469 26.3581Q48.0299 26.5496 48.0299 27.5072Q48.0299 28.1372 47.8304 28.7882C47.6974 29.2222 47.5224 29.6037 47.3054 29.9327L48.8384 30.6152Q49.2059 30.0902 49.4264 29.2502ZM42.1499 34.4824Q42.1499 33.4849 42.4859 32.7499Q42.7329 32.1921 43.1492 31.8279Q43.2815 31.7121 43.4309 31.6159Q43.5039 31.5681 43.5801 31.526Q44.1394 31.2169 44.8694 31.2169Q45.5995 31.2169 46.1587 31.526Q46.2349 31.5681 46.3079 31.6159Q46.4125 31.6844 46.5091 31.7629Q46.9746 32.1411 47.2529 32.7499Q47.5784 33.4849 47.5784 34.4824L47.5784 35.7634L49.4999 35.7634L49.4999 37.8424L42.1499 37.8424L42.1499 34.4824ZM45.9404 34.6084Q45.9404 33.9679 45.6674 33.6424Q45.5954 33.5597 45.5085 33.498Q45.2533 33.3169 44.8694 33.3169Q44.4856 33.3169 44.2303 33.498Q44.1434 33.5597 44.0714 33.6424Q43.7879 33.9679 43.7879 34.6084L43.7879 35.7634L45.9404 35.7634L45.9404 34.6084ZM49.4999 41.4226L42.1499 38.2726L42.1499 40.3306L46.9379 42.3676L42.1499 44.3626L42.1499 46.6096L49.4999 43.4701L49.4999 41.4226Z" opacity="0" fill="rgb(253.938,157.653,68.7747)" fill-rule="evenodd" />
		<path id="VPS" d="M49.0842 30.7872C49.3497 30.4079 49.5605 29.921 49.7166 29.3264C49.7327 29.265 49.748 29.2034 49.7624 29.1416C49.8854 28.6147 49.9469 28.0734 49.9469 27.5177C49.9469 26.7766 49.8334 26.1411 49.6062 25.6112C49.3663 25.0694 49.0444 24.6599 48.6407 24.3828C48.4553 24.2556 48.2601 24.1573 48.0551 24.0878C47.8088 24.0044 47.5485 23.9627 47.2739 23.9627C46.7671 23.9627 46.3482 24.0833 46.0173 24.3246C45.9643 24.3632 45.9136 24.405 45.8651 24.4498C45.6734 24.6196 45.512 24.8085 45.3808 25.0164C45.2812 25.1743 45.199 25.3432 45.1342 25.5232C44.989 25.9014 44.8554 26.3776 44.7334 26.9517C44.6326 27.4286 44.5374 27.7697 44.4476 27.9749C44.4072 28.0672 44.3591 28.1187 44.3033 28.1292C44.2962 28.1305 44.2889 28.1312 44.2814 28.1312C44.2624 28.1312 44.244 28.1288 44.2262 28.1241C44.1641 28.1076 44.1096 28.0622 44.0628 27.9878L44.0607 27.9845L44.0585 27.9813C43.9661 27.8427 43.9199 27.5971 43.9199 27.2447C43.9199 26.6372 44.0969 26.0058 44.4509 25.3502L44.6087 25.0579L42.5172 24.19L42.3848 24.4151C42.1589 24.7992 41.9904 25.2396 41.8791 25.7365C41.8238 25.968 41.7816 26.2012 41.7523 26.4359C41.7194 26.7 41.7029 26.966 41.7029 27.2342C41.7029 27.9822 41.8162 28.6206 42.0428 29.1493C42.2735 29.6799 42.591 30.0833 42.9954 30.3597C43 30.3628 43.0046 30.3659 43.0092 30.369C43.1786 30.4853 43.3568 30.5774 43.5437 30.6454C43.8072 30.7413 44.0881 30.7892 44.3864 30.7892C44.9037 30.7892 45.332 30.6663 45.6713 30.4206C45.7168 30.3876 45.7608 30.3524 45.8031 30.315C45.9781 30.1603 46.1291 29.9893 46.256 29.8021C46.3744 29.6275 46.4718 29.4388 46.5483 29.2359C46.6858 28.8525 46.8153 28.3784 46.9368 27.8138C47.044 27.3313 47.1454 26.988 47.2411 26.784L47.2434 26.779L47.2456 26.7739C47.2832 26.6853 47.331 26.6327 47.3892 26.616C47.4027 26.6121 47.4168 26.6102 47.4314 26.6102C47.4518 26.6102 47.471 26.6134 47.4891 26.6198C47.5385 26.6372 47.5794 26.6785 47.612 26.7436C47.6906 26.9009 47.7299 27.1554 47.7299 27.5072C47.7299 27.8972 47.6678 28.2949 47.5436 28.7003C47.419 29.1068 47.2562 29.4625 47.055 29.7675L46.8602 30.0629L48.9424 30.9899L49.0842 30.7872ZM45.4154 25.6277C45.2754 25.9917 45.1459 26.4537 45.0269 27.0137C44.9219 27.5107 44.8204 27.8712 44.7224 28.0952C44.6244 28.3192 44.4774 28.4312 44.2814 28.4312C44.2104 28.4312 44.1444 28.4188 44.0835 28.394C43.9763 28.3503 43.8848 28.2682 43.8089 28.1477C43.6829 27.9587 43.6199 27.6577 43.6199 27.2447C43.6199 26.6711 43.7636 26.0815 44.0508 25.476C44.0931 25.3869 44.1384 25.2975 44.1869 25.2077L43.9085 25.0921L42.6434 24.5672C42.4334 24.9242 42.2759 25.3372 42.1709 25.8062C42.1184 26.0263 42.0782 26.2479 42.0503 26.471C42.0187 26.7234 42.0029 26.9778 42.0029 27.2342C42.0029 27.9412 42.1079 28.5397 42.3179 29.0297C42.5279 29.5127 42.8149 29.8767 43.1789 30.1217C43.3229 30.2205 43.4742 30.2993 43.6329 30.3583C43.8679 30.4456 44.119 30.4892 44.3864 30.4892C44.8639 30.4892 45.2496 30.3731 45.5437 30.1409C45.5644 30.1246 45.5847 30.1077 45.6044 30.0902C45.7717 29.9424 45.9141 29.7783 46.0317 29.5981C46.1256 29.454 46.2037 29.2995 46.2659 29.1347C46.3989 28.7637 46.5249 28.3017 46.6439 27.7487C46.7559 27.2447 46.8644 26.8807 46.9694 26.6567C47.0325 26.5081 47.1186 26.4073 47.228 26.3543C47.2887 26.3249 47.3565 26.3102 47.4314 26.3102C47.5112 26.3102 47.583 26.3262 47.6469 26.3581C47.9023 26.4858 48.0299 26.8688 48.0299 27.5072C48.0299 27.9272 47.9634 28.3542 47.8304 28.7882C47.731 29.1128 47.608 29.408 47.4616 29.6738C47.4122 29.7634 47.3601 29.8497 47.3054 29.9327L47.5829 30.0562L48.8384 30.6152C49.0834 30.2652 49.2794 29.8102 49.4264 29.2502C49.4394 29.2009 49.4517 29.1515 49.4635 29.102C49.5858 28.5884 49.6469 28.0603 49.6469 27.5177C49.6469 26.8177 49.5419 26.2227 49.3319 25.7327C49.1149 25.2427 48.8279 24.8752 48.4709 24.6302C48.3111 24.5205 48.1428 24.4353 47.9661 24.3748L47.9661 24.3748C47.7482 24.3 47.5175 24.2627 47.2739 24.2627C46.808 24.2627 46.4323 24.3762 46.1468 24.6031C46.1192 24.6251 46.0924 24.6481 46.0664 24.6722C45.8928 24.8256 45.7472 24.9965 45.6294 25.1849C45.5431 25.3231 45.4717 25.4707 45.4154 25.6277ZM42.2124 32.6268C41.9707 33.156 41.8499 33.7746 41.8499 34.4824L41.8499 37.8177L41.8499 38.1424L41.8499 40.529L46.1648 42.3648L41.8499 44.1626L41.8499 47.064L49.7999 43.6682L49.7999 41.2248L42.6076 38.1424L49.7999 38.1424L49.7999 35.4634L47.8784 35.4634L47.8784 34.4824C47.8784 33.7751 47.7609 33.156 47.5258 32.6252C47.3282 32.1929 47.0651 31.8384 46.7365 31.5616C46.6527 31.491 46.5647 31.4254 46.4723 31.365C46.4012 31.3183 46.3282 31.2754 46.2532 31.236C45.8478 31.0233 45.3865 30.9169 44.8694 30.9169C44.3476 30.9169 43.8831 31.0249 43.4759 31.241C43.405 31.2786 43.3359 31.3195 43.2685 31.3637C43.1447 31.4434 43.0288 31.532 42.9208 31.6293C42.6252 31.8958 42.389 32.2283 42.2124 32.6268ZM47.5784 35.4634L47.5784 34.4824C47.5784 33.8174 47.4699 33.2399 47.2529 32.7499C47.0674 32.3441 46.8195 32.0151 46.5091 31.7629L46.509 31.7628C46.4447 31.7106 46.3777 31.6616 46.3079 31.6159C46.2593 31.584 46.2095 31.554 46.1587 31.526C45.7859 31.3199 45.3561 31.2169 44.8694 31.2169C44.3827 31.2169 43.953 31.3199 43.5801 31.526C43.5293 31.554 43.4796 31.584 43.4309 31.6159C43.3314 31.68 43.2376 31.7506 43.1495 31.8277L43.1492 31.8279C42.8717 32.0707 42.6506 32.3781 42.4859 32.7499C42.2619 33.2399 42.1499 33.8174 42.1499 34.4824L42.1499 37.5424L42.1499 37.8424L49.4999 37.8424L49.4999 35.7634L47.5784 35.7634L47.5784 35.4634ZM46.552 42.2035L46.9379 42.3676L46.5508 42.529L42.1499 44.3626L42.1499 46.2834L42.1499 46.6096L42.4499 46.4815L49.4999 43.4701L49.4999 41.4226L42.4499 38.4012L42.1499 38.2726L42.1499 38.599L42.1499 40.3306L46.552 42.2035ZM45.6674 33.6424C45.8494 33.8594 45.9404 34.1814 45.9404 34.6084L45.9404 35.7634L43.7879 35.7634L43.7879 35.4634L43.7879 34.6084C43.7879 34.1814 43.8824 33.8594 44.0714 33.6424C44.1194 33.5873 44.1724 33.5392 44.2303 33.498C44.4005 33.3773 44.6135 33.3169 44.8694 33.3169C45.1253 33.3169 45.3383 33.3773 45.5085 33.498C45.5665 33.5392 45.6194 33.5873 45.6674 33.6424ZM44.0879 35.4634L44.0879 34.6084C44.0879 34.2563 44.1578 34 44.2977 33.8394C44.3191 33.8148 44.3422 33.7923 44.367 33.7718C44.4918 33.6685 44.6592 33.6169 44.8694 33.6169C45.0796 33.6169 45.2471 33.6685 45.3719 33.7718C45.396 33.7917 45.4185 33.8135 45.4394 33.8373C45.5734 33.9987 45.6404 34.2557 45.6404 34.6084L45.6404 35.4634L44.0879 35.4634Z" opacity="0" fill="rgb(255,255,255)" fill-rule="evenodd" />
		<path id="VDS" d="M48.89 28.6342C49.0513 28.0622 49.132 27.4719 49.132 26.8632Q49.132 25.8072 48.813 25.0702Q48.494 24.3332 47.955 23.9702Q47.6677 23.7749 47.3504 23.6816Q47.0603 23.5962 46.745 23.5962Q46.0377 23.5962 45.5996 23.9396Q45.5607 23.9701 45.524 24.0032Q45.2937 24.2054 45.1265 24.4506Q44.9663 24.6856 44.864 24.9602Q44.655 25.5212 44.446 26.4012Q44.259 27.2482 44.072 27.6662Q43.9498 27.9174 43.7521 28.0136Q43.6295 28.0732 43.478 28.0732Q43.3144 28.0732 43.1771 28.0131Q42.982 27.9278 42.84 27.7212Q42.598 27.3582 42.598 26.6102Q42.598 25.5432 43.203 24.4762L41.85 23.9262Q41.52 24.4542 41.344 25.1582Q41.3015 25.3282 41.2692 25.5002Q41.168 26.0402 41.168 26.5992Q41.168 27.6552 41.487 28.3922Q41.806 29.1182 42.356 29.4812Q42.575 29.6287 42.8158 29.7163Q43.1676 29.8442 43.566 29.8442Q44.2915 29.8442 44.7436 29.4926Q44.7713 29.4711 44.798 29.4482Q45.0835 29.1967 45.2723 28.8864Q45.3891 28.6946 45.469 28.4802Q45.678 27.9192 45.887 27.0392C45.975 26.6579 46.0556 26.3572 46.129 26.1372Q46.239 25.7962 46.426 25.5872Q46.5196 25.4701 46.6414 25.4153Q46.7483 25.3672 46.877 25.3672Q47.0084 25.3672 47.1221 25.412Q47.3321 25.4948 47.482 25.7302Q47.702 26.0932 47.702 26.8522Q47.702 27.5342 47.482 28.2162C47.3353 28.6709 47.141 29.0632 46.899 29.3932L48.241 29.9982C48.505 29.6535 48.7213 29.1989 48.89 28.6342ZM41.3 38.2611L41.3 34.7631Q41.3 33.5091 41.784 32.5521Q42.1061 31.893 42.6118 31.4378Q42.8487 31.2246 43.126 31.0561Q43.224 30.9953 43.3256 30.9414Q44.1252 30.5171 45.15 30.5171Q46.1747 30.5171 46.9743 30.9414Q47.076 30.9953 47.174 31.0561Q47.4339 31.214 47.6594 31.4113Q48.1877 31.8736 48.527 32.5521Q49 33.5091 49 34.7631L49 38.2611L41.3 38.2611ZM47.537 34.8511Q47.537 33.8507 47.0584 33.2052L47.0584 33.2052Q46.9844 33.1054 46.899 33.0141Q46.7209 32.824 46.5089 32.686Q45.9482 32.3211 45.15 32.3211Q44.3441 32.3211 43.7862 32.693Q43.5826 32.8288 43.412 33.0141Q43.3128 33.1184 43.2287 33.2337L43.2287 33.2337Q42.763 33.8727 42.763 34.8511L42.763 36.4791L47.537 36.4791L47.537 34.8511ZM49 42.017L41.3 38.684L41.3 40.455L46.8 42.831L41.3 45.174L41.3 47.099L49 43.777L49 42.017Z" fill="rgb(253.938,157.653,68.7747)" fill-rule="evenodd" />
		<path id="VDS" d="M48.4791 30.1806C48.7655 29.8068 48.9982 29.3199 49.1774 28.7201L49.1787 28.7156C49.2122 28.597 49.2423 28.4775 49.2692 28.3574C49.3777 27.8714 49.432 27.3734 49.432 26.8632C49.432 26.1178 49.3174 25.4804 49.0883 24.951C48.8524 24.406 48.5308 23.9963 48.1237 23.7221C47.9067 23.5746 47.6784 23.4654 47.4388 23.3945C47.2172 23.329 46.9859 23.2962 46.745 23.2962C46.2281 23.2962 45.8012 23.4193 45.4641 23.6655C45.4163 23.7004 45.3702 23.7379 45.326 23.7778C45.1536 23.9292 45.0047 24.0967 44.8794 24.2803C44.7587 24.4571 44.6598 24.6488 44.5828 24.8555C44.4392 25.2411 44.2959 25.7347 44.153 26.3365C44.0335 26.878 43.9159 27.2789 43.8002 27.5391C43.746 27.6487 43.6769 27.7199 43.5928 27.7525C43.5572 27.7663 43.5189 27.7732 43.478 27.7732C43.4179 27.7732 43.3621 27.7628 43.3105 27.742C43.2255 27.7078 43.1519 27.6454 43.0896 27.5548C42.9618 27.3632 42.898 27.0483 42.898 26.6102C42.898 25.9516 43.0866 25.2896 43.4639 24.6242L43.6325 24.327L41.7293 23.5533L41.5956 23.7672C41.3588 24.146 41.1779 24.5854 41.0529 25.0854C41.0216 25.2106 40.9943 25.3366 40.9709 25.4632C40.9023 25.8356 40.868 26.2142 40.868 26.5992C40.868 27.3446 40.9827 27.9825 41.2123 28.5129C41.4455 29.0435 41.7652 29.4455 42.1714 29.7188C42.1771 29.7225 42.1827 29.7263 42.1884 29.73C42.3596 29.8454 42.5395 29.9366 42.7279 30.0038C42.9906 30.0974 43.2699 30.1442 43.566 30.1442C44.0833 30.1442 44.5148 30.0224 44.8606 29.7789C44.9074 29.746 44.9526 29.7108 44.9963 29.6733C45.2054 29.4891 45.38 29.2835 45.52 29.0566C45.6114 28.9085 45.6881 28.7513 45.7501 28.5849C45.8937 28.1994 46.0368 27.7066 46.1793 27.1067C46.2651 26.7346 46.3435 26.4421 46.4145 26.2293C46.4748 26.0423 46.5532 25.895 46.6495 25.7872L46.6551 25.7811L46.6602 25.7746C46.6927 25.734 46.73 25.705 46.772 25.6874C46.8042 25.6739 46.8392 25.6672 46.877 25.6672C46.9159 25.6672 46.953 25.6729 46.9883 25.6842C47.0795 25.7135 47.1585 25.7807 47.2254 25.8857C47.3431 26.0799 47.402 26.4021 47.402 26.8522C47.402 27.2754 47.3335 27.6994 47.1965 28.1241C47.0597 28.548 46.8799 28.9119 46.657 29.2158L46.438 29.5145L48.3345 30.3695L48.4791 30.1806ZM44.072 27.6662C44.1966 27.3875 44.3213 26.9659 44.446 26.4012C44.5853 25.8145 44.7246 25.3342 44.864 24.9602C44.9322 24.7772 45.0197 24.6073 45.1265 24.4506C45.238 24.2871 45.3705 24.138 45.524 24.0032C45.5485 23.9811 45.5737 23.9599 45.5996 23.9396C45.8916 23.7107 46.2734 23.5962 46.745 23.5962C46.9552 23.5962 47.157 23.6247 47.3504 23.6816L47.3504 23.6816C47.562 23.7438 47.7635 23.84 47.955 23.9702C48.3143 24.2122 48.6003 24.5789 48.813 25.0702C49.0256 25.5615 49.132 26.1592 49.132 26.8632C49.132 27.3595 49.0783 27.8436 48.9711 28.3155C48.9468 28.4223 48.9198 28.5286 48.89 28.6342C48.7213 29.1989 48.505 29.6535 48.241 29.9982L47.178 29.519L46.899 29.3932C46.9581 29.3126 47.0143 29.2283 47.0678 29.1402C47.2331 28.8678 47.3711 28.5598 47.482 28.2162C47.6286 27.7615 47.702 27.3069 47.702 26.8522C47.702 26.3462 47.6286 25.9722 47.482 25.7302C47.3821 25.5732 47.2621 25.4672 47.1221 25.412C47.0463 25.3821 46.9646 25.3672 46.877 25.3672C46.7912 25.3672 46.7127 25.3833 46.6414 25.4153C46.5602 25.4519 46.4884 25.5092 46.426 25.5872C46.3013 25.7265 46.2023 25.9099 46.129 26.1372C46.0556 26.3572 45.975 26.6579 45.887 27.0392C45.7476 27.6259 45.6083 28.1062 45.469 28.4802C45.4157 28.6231 45.3502 28.7585 45.2723 28.8864C45.1464 29.0933 44.9883 29.2805 44.798 29.4482C44.7803 29.4634 44.7622 29.4781 44.7438 29.4924L44.7436 29.4926C44.4422 29.727 44.0497 29.8442 43.566 29.8442C43.3004 29.8442 43.0503 29.8016 42.8158 29.7163C42.6552 29.6579 42.502 29.5795 42.356 29.4812C41.9893 29.2392 41.6996 28.8762 41.487 28.3922C41.2743 27.9009 41.168 27.3032 41.168 26.5992C41.168 26.2265 41.2017 25.8602 41.2692 25.5002L41.2692 25.5002C41.2907 25.3855 41.3156 25.2716 41.344 25.1582C41.4613 24.6889 41.63 24.2782 41.85 23.9262L42.9228 24.3623L43.203 24.4762C43.1526 24.565 43.1054 24.6537 43.0614 24.7425C42.7524 25.3651 42.598 25.9876 42.598 26.6102L42.598 26.6102C42.598 27.1089 42.6786 27.4792 42.84 27.7212C42.9347 27.8589 43.047 27.9562 43.1771 28.0131C43.2686 28.0532 43.3689 28.0732 43.478 28.0732C43.579 28.0732 43.6704 28.0533 43.7521 28.0136C43.8839 27.9495 43.9905 27.8337 44.072 27.6662ZM41.5163 32.4167C41.1721 33.0973 41 33.8794 41 34.7631L41 38.2272L41 38.5611L41 40.6522L46.039 42.8291L41 44.9757L41 47.5552L49.3 43.9743L49.3 41.82L41.7713 38.5611L49.3 38.5611L49.3 34.7631C49.3 33.8804 49.1317 33.0987 48.7953 32.4179C48.5535 31.9344 48.2447 31.527 47.8689 31.1955C47.703 31.0493 47.5241 30.9178 47.3321 30.8012C47.245 30.7471 47.156 30.6968 47.065 30.6503C46.5006 30.3615 45.8622 30.2171 45.15 30.2171C44.4317 30.2171 43.7891 30.3636 43.2223 30.6566C43.1365 30.701 43.0525 30.7487 42.9702 30.7997C42.7538 30.9312 42.5546 31.0812 42.3724 31.2496C42.0247 31.5712 41.7393 31.9603 41.5163 32.4167ZM46.4199 42.6668L46.8 42.831L46.4191 42.9933L41.3 45.174L41.3 46.7723L41.3 47.099L41.6 46.9696L49 43.777L49 42.017L41.6 38.8139L41.3 38.684L41.3 39.0109L41.3 40.455L46.4199 42.6668ZM41.3 37.9611L41.3 38.2611L49 38.2611L49 37.9611L49 34.7631C49 33.9271 48.8423 33.1901 48.527 32.5521C48.3008 32.0998 48.0117 31.7196 47.6595 31.4114L47.6594 31.4113C47.5091 31.2798 47.3473 31.1614 47.174 31.0561C47.1086 31.0156 47.0421 30.9773 46.9743 30.9414C46.4413 30.6585 45.8331 30.5171 45.15 30.5171C44.4668 30.5171 43.8587 30.6585 43.3256 30.9414C43.2578 30.9773 43.1913 31.0156 43.126 31.0561C42.9411 31.1684 42.7697 31.2957 42.6118 31.4378C42.2746 31.7412 41.9987 32.1127 41.784 32.5521C41.4613 33.1901 41.3 33.9271 41.3 34.7631L41.3 37.9611ZM47.0584 33.2052C47.3774 33.6356 47.537 34.1842 47.537 34.8511L47.537 36.4791L42.763 36.4791L42.763 36.1791L42.763 34.8511C42.763 34.1988 42.9182 33.6597 43.2287 33.2337L43.2287 33.2337C43.2847 33.1568 43.3458 33.0836 43.412 33.0141C43.5257 32.8906 43.6504 32.7836 43.7862 32.693L43.7862 32.693C44.1581 32.4451 44.6127 32.3211 45.15 32.3211C45.6821 32.3211 46.1351 32.4427 46.5089 32.686L46.5091 32.6862C46.6504 32.7781 46.7803 32.8874 46.899 33.0141C46.9559 33.075 47.009 33.1387 47.0584 33.2052L47.0584 33.2052ZM43.063 36.1791L43.063 34.8511C43.063 34.2459 43.209 33.7526 43.5012 33.3711C43.5421 33.3177 43.586 33.2664 43.6327 33.2173C43.7189 33.1237 43.8128 33.0411 43.9145 32.9695C44.2446 32.7372 44.6564 32.6211 45.15 32.6211C45.639 32.6211 46.0499 32.7351 46.3826 32.9631C46.4898 33.0366 46.5889 33.1219 46.6799 33.219L46.68 33.2192C46.715 33.2566 46.7484 33.2954 46.7802 33.3355C47.0847 33.7201 47.237 34.2253 47.237 34.8511L47.237 36.1791L43.063 36.1791Z" fill="rgb(255,255,255)" fill-rule="evenodd" />
		<path id="BET" d="M97.7735 30.4637Q96.8392 29.5294 95.42 29.08Q96.3568 28.5903 96.9915 27.8437Q97.251 27.5383 97.46 27.19C97.96 26.39 98.21 25.48 98.21 24.46Q98.21 23.2223 97.7107 22.2379Q97.1933 21.218 96.14 20.47Q94.1 19 90.26 19L80 19L80 40L90.86 40C93.6 40 95.68 39.51 97.1 38.53Q98.0588 37.8642 98.5919 36.9502Q99.26 35.8049 99.26 34.27C99.26 32.97 98.92 31.88 98.24 31Q98.0242 30.7144 97.7736 30.4637L97.7735 30.4637ZM119.199 36.1L119.199 40L102.939 40L102.939 19L118.809 19L118.809 22.9L107.769 22.9L107.769 27.46L117.519 27.46L117.519 31.24L107.769 31.24L107.769 36.1L119.199 36.1ZM120.696 22.96L127.416 22.96L127.416 40L132.276 40L132.276 22.96L138.996 22.96L138.996 19L120.696 19L120.696 22.96ZM84.83 27.61L84.83 22.66L89.66 22.66Q91.46 22.66 92.39 23.29Q92.7488 23.5215 92.9692 23.8468L92.9693 23.8469Q93.32 24.3646 93.32 25.12Q93.32 25.8611 92.9824 26.3843L92.9824 26.3844Q92.7597 26.7296 92.39 26.98Q91.46 27.61 89.66 27.61L84.83 27.61ZM93.38 35.71C92.74 36.13 91.78 36.34 90.5 36.34L84.83 36.34L84.83 31.15L90.5 31.15Q93.1601 31.15 93.9917 32.3831Q94.37 32.944 94.37 33.76Q94.37 34.5856 93.9827 35.1413L93.9827 35.1414Q93.7508 35.4741 93.38 35.71Z" fill="rgb(255,255,255)" fill-rule="evenodd" />
		<path id="VPS" d="M184.976 40.2C186.536 40.64 188.146 40.86 189.806 40.86C191.726 40.86 193.356 40.57 194.696 39.99C196.036 39.41 197.036 38.63 197.696 37.65C198.376 36.65 198.716 35.55 198.716 34.35C198.716 32.95 198.346 31.84 197.606 31.02C196.886 30.2 196.016 29.6 194.996 29.22C193.976 28.84 192.666 28.46 191.066 28.08C189.526 27.74 188.376 27.4 187.616 27.06C186.876 26.7 186.506 26.16 186.506 25.44Q186.506 24.9938 186.67 24.6193Q186.903 24.0873 187.466 23.7C188.126 23.26 189.136 23.04 190.496 23.04Q193.406 23.04 196.316 24.69L197.816 21C196.856 20.4 195.736 19.94 194.456 19.62C193.176 19.3 191.866 19.14 190.526 19.14C188.606 19.14 186.976 19.43 185.636 20.01C184.316 20.59 183.326 21.38 182.666 22.38C182.006 23.36 181.676 24.46 181.676 25.68Q181.676 27.6588 182.635 28.8918Q182.694 28.9673 182.756 29.04C183.496 29.88 184.376 30.49 185.396 30.87C186.416 31.25 187.726 31.63 189.326 32.01Q190.886 32.37 191.786 32.67C192.406 32.87 192.906 33.14 193.286 33.48C193.686 33.8 193.886 34.21 193.886 34.71C193.886 35.39 193.556 35.94 192.896 36.36C192.236 36.76 191.216 36.96 189.836 36.96C188.596 36.96 187.356 36.76 186.116 36.36C184.876 35.96 183.806 35.43 182.906 34.77L181.256 38.43C182.196 39.15 183.436 39.74 184.976 40.2ZM150.09 40.5L159.18 19.5L154.35 19.5L147.87 34.5L141.48 19.5L136.23 19.5L145.29 40.5L150.09 40.5ZM170.023 19.5Q172.813 19.5 174.853 20.43C176.233 21.05 177.293 21.93 178.033 23.07C178.773 24.21 179.143 25.56 179.143 27.12C179.143 28.66 178.773 30.01 178.033 31.17C177.293 32.31 176.233 33.19 174.853 33.81Q172.813 34.71 170.023 34.71L165.793 34.71L165.793 40.5L160.933 40.5L160.933 19.5L170.023 19.5ZM169.753 30.75Q171.943 30.75 173.083 29.82C173.843 29.18 174.223 28.28 174.223 27.12C174.223 25.94 173.843 25.04 173.083 24.42Q171.943 23.46 169.753 23.46L165.793 23.46L165.793 30.75L169.753 30.75Z" opacity="0" fill="rgb(253.938,157.653,68.7747)" fill-rule="evenodd" />
		<path id="VDS" d="M190.089 39.7C191.648 40.14 193.258 40.36 194.918 40.36Q197.798 40.36 199.809 39.49C201.148 38.91 202.148 38.13 202.809 37.15C203.488 36.15 203.828 35.05 203.828 33.85C203.828 32.45 203.458 31.34 202.718 30.52C201.998 29.7 201.128 29.1 200.108 28.72C199.089 28.34 197.779 27.96 196.178 27.58C194.638 27.24 193.488 26.9 192.729 26.56C191.988 26.2 191.618 25.66 191.618 24.94Q191.618 24.4938 191.782 24.1193Q192.015 23.5873 192.578 23.2C193.238 22.76 194.249 22.54 195.608 22.54C197.548 22.54 199.488 23.09 201.428 24.19L202.928 20.5C201.969 19.9 200.848 19.44 199.568 19.12C198.288 18.8 196.979 18.64 195.638 18.64Q192.758 18.64 190.749 19.51C189.428 20.09 188.438 20.88 187.779 21.88C187.118 22.86 186.788 23.96 186.788 25.18Q186.788 27.1588 187.747 28.3918Q187.806 28.4673 187.868 28.54C188.608 29.38 189.488 29.99 190.508 30.37C191.529 30.75 192.839 31.13 194.438 31.51C195.479 31.75 196.298 31.97 196.898 32.17C197.518 32.37 198.018 32.64 198.398 32.98C198.798 33.3 198.999 33.71 198.999 34.21C198.999 34.89 198.668 35.44 198.008 35.86C197.348 36.26 196.328 36.46 194.948 36.46C193.708 36.46 192.469 36.26 191.229 35.86C189.988 35.46 188.918 34.93 188.018 34.27L186.368 37.93C187.309 38.65 188.548 39.24 190.089 39.7ZM153.59 40L162.68 19L157.85 19L151.37 34L144.98 19L139.73 19L148.79 40L153.59 40ZM163.833 19L173.373 19Q176.793 19 179.403 20.32C181.163 21.18 182.523 22.4 183.483 23.98C184.463 25.56 184.953 27.4 184.953 29.5C184.953 31.6 184.463 33.44 183.483 35.02C182.523 36.6 181.163 37.83 179.403 38.71Q176.793 40 173.373 40L163.833 40L163.833 19ZM173.133 36.01C175.233 36.01 176.903 35.43 178.143 34.27C179.403 33.09 180.033 31.5 180.033 29.5C180.033 27.5 179.403 25.92 178.143 24.76C176.903 23.58 175.233 22.99 173.133 22.99L168.693 22.99L168.693 36.01L173.133 36.01Z" fill="rgb(253.938,157.653,68.7747)" fill-rule="evenodd" />
	</g>
</svg>
